<svg width="34" height="28" viewBox="0 0 34 28" fill="none" xmlns="http://www.w3.org/2000/svg">
<path d="M15.66 6.4C15.66 7 15.82 7.54 16.14 8.02C16.4733 8.5 16.8933 8.94667 17.4 9.36C17.9067 9.77333 18.4467 10.1867 19.02 10.6C19.5933 11 20.1333 11.4267 20.64 11.88C21.1467 12.32 21.56 12.8133 21.88 13.36C22.2133 13.9067 22.38 14.5333 22.38 15.24C22.38 16.08 22.14 16.82 21.66 17.46C21.1933 18.1 20.54 18.6 19.7 18.96C18.8733 19.32 17.9133 19.5 16.82 19.5C15.8067 19.5 14.9067 19.3467 14.12 19.04C13.3467 18.7333 12.74 18.3067 12.3 17.76C11.86 17.2 11.64 16.5667 11.64 15.86C11.64 15.34 11.7533 14.88 11.98 14.48C12.22 14.08 12.5467 13.7667 12.96 13.54C13.3733 13.3133 13.8467 13.2 14.38 13.2C14.5267 13.2 14.6533 13.2067 14.76 13.22C14.8667 13.2333 14.9667 13.2533 15.06 13.28C14.6467 13.8933 14.44 14.5467 14.44 15.24C14.44 16.0267 14.6733 16.6667 15.14 17.16C15.62 17.64 16.24 17.88 17 17.88C17.6933 17.88 18.26 17.6867 18.7 17.3C19.14 16.9133 19.36 16.4133 19.36 15.8C19.36 15.2667 19.2 14.7867 18.88 14.36C18.5733 13.92 18.1667 13.5 17.66 13.1C17.1667 12.7 16.64 12.2933 16.08 11.88C15.52 11.4667 14.9867 11.0267 14.48 10.56C13.9867 10.08 13.58 9.54667 13.26 8.96C12.9533 8.37333 12.8 7.7 12.8 6.94C12.8 6.1 13.0133 5.36667 13.44 4.74C13.8667 4.11333 14.4667 3.62667 15.24 3.28C16.0133 2.93333 16.9133 2.76 17.94 2.76C18.8467 2.76 19.6467 2.90667 20.34 3.2C21.0467 3.49333 21.6 3.9 22 4.42C22.4 4.92667 22.6 5.51333 22.6 6.18C22.6 6.68667 22.4733 7.14667 22.22 7.56C21.98 7.96 21.6533 8.28 21.24 8.52C20.8267 8.74667 20.3533 8.86 19.82 8.86C19.6467 8.86 19.4867 8.85333 19.34 8.84C19.1933 8.82667 19.0667 8.80667 18.96 8.78C19.2667 8.46 19.5067 8.08667 19.68 7.66C19.8667 7.23333 19.96 6.81333 19.96 6.4C19.96 5.74667 19.76 5.22667 19.36 4.84C18.9733 4.44 18.4667 4.24 17.84 4.24C17.1867 4.24 16.66 4.44 16.26 4.84C15.86 5.24 15.66 5.76 15.66 6.4Z" fill="#104981"/>
<path d="M4.12253 16.3547C4.04436 16.429 3.99904 16.5322 4.00281 16.64C4.07428 18.683 5.57036 20.5281 7.76184 21.9883C10.0135 23.4886 13.4226 24.5436 16.6145 24.5551C19.8065 24.5666 22.8319 23.4567 25.0944 21.9726C27.2856 20.5353 28.6918 18.6957 28.976 16.6733C28.9935 16.5489 28.9468 16.4248 28.8557 16.3382C28.6712 16.1628 28.3729 16.1983 28.2287 16.408C27.3629 17.6673 25.8069 19.5686 24.001 20.7532C21.9867 22.0745 19.456 23.1391 16.6142 23.1289C13.7724 23.1187 11.0057 22.0863 9.00098 20.7505C7.15149 19.5182 5.78924 18.2184 4.75391 16.4509C4.62162 16.225 4.31221 16.1744 4.12253 16.3547Z" fill="#104981"/>
<path d="M0.332557 21.1387C0.171756 21.1098 0.023339 21.2334 0.0390016 21.396C0.189713 22.961 1.51528 24.7868 4.50098 25.8761C7.68796 27.0388 12.5103 27.9229 17.0232 27.9391C21.5361 27.9553 25.8109 27.0438 29.0061 25.904C31.9 24.8717 33.6428 23.1223 33.9501 21.5919C33.9895 21.3955 33.7738 21.2758 33.6083 21.3887C33.5402 21.4352 33.5026 21.5126 33.4848 21.593C33.2593 22.6146 30.4658 24.0749 27.739 25.0476C24.8942 26.0624 21.0388 26.6243 17.0209 26.6099C13.003 26.5954 9.15166 26.0058 6.31427 24.9706C3.56318 23.9669 1.1466 22.9397 0.543709 21.3214C0.508964 21.2282 0.43051 21.1563 0.332557 21.1387Z" fill="#104981"/>
</svg>
