<svg width="121" height="52" viewBox="0 0 121 52" fill="none" xmlns="http://www.w3.org/2000/svg">
<path d="M6.456 17.84C6.456 18.8 6.712 19.664 7.224 20.432C7.75733 21.2 8.42933 21.9147 9.24 22.576C10.0507 23.2373 10.9147 23.8987 11.832 24.56C12.7493 25.2 13.6133 25.8827 14.424 26.608C15.2347 27.312 15.896 28.1013 16.408 28.976C16.9413 29.8507 17.208 30.8533 17.208 31.984C17.208 33.328 16.824 34.512 16.056 35.536C15.3093 36.56 14.264 37.36 12.92 37.936C11.5973 38.512 10.0613 38.8 8.312 38.8C6.69067 38.8 5.25067 38.5547 3.992 38.064C2.75467 37.5733 1.784 36.8907 1.08 36.016C0.376 35.12 0.024 34.1067 0.024 32.976C0.024 32.144 0.205333 31.408 0.568 30.768C0.952 30.128 1.47467 29.6267 2.136 29.264C2.79733 28.9013 3.55467 28.72 4.408 28.72C4.64267 28.72 4.84533 28.7307 5.016 28.752C5.18667 28.7733 5.34667 28.8053 5.496 28.848C4.83467 29.8293 4.504 30.8747 4.504 31.984C4.504 33.2427 4.87733 34.2667 5.624 35.056C6.392 35.824 7.384 36.208 8.6 36.208C9.70933 36.208 10.616 35.8987 11.32 35.28C12.024 34.6613 12.376 33.8613 12.376 32.88C12.376 32.0267 12.12 31.2587 11.608 30.576C11.1173 29.872 10.4667 29.2 9.656 28.56C8.86667 27.92 8.024 27.2693 7.128 26.608C6.232 25.9467 5.37867 25.2427 4.568 24.496C3.77867 23.728 3.128 22.8747 2.616 21.936C2.12533 20.9973 1.88 19.92 1.88 18.704C1.88 17.36 2.22133 16.1867 2.904 15.184C3.58667 14.1813 4.54667 13.4027 5.784 12.848C7.02133 12.2933 8.46133 12.016 10.104 12.016C11.5547 12.016 12.8347 12.2507 13.944 12.72C15.0747 13.1893 15.96 13.84 16.6 14.672C17.24 15.4827 17.56 16.4213 17.56 17.488C17.56 18.2987 17.3573 19.0347 16.952 19.696C16.568 20.336 16.0453 20.848 15.384 21.232C14.7227 21.5947 13.9653 21.776 13.112 21.776C12.8347 21.776 12.5787 21.7653 12.344 21.744C12.1093 21.7227 11.9067 21.6907 11.736 21.648C12.2267 21.136 12.6107 20.5387 12.888 19.856C13.1867 19.1733 13.336 18.5013 13.336 17.84C13.336 16.7947 13.016 15.9627 12.376 15.344C11.7573 14.704 10.9467 14.384 9.944 14.384C8.89867 14.384 8.056 14.704 7.416 15.344C6.776 15.984 6.456 16.816 6.456 17.84ZM26.4515 35.184C26.4515 35.952 26.4835 36.624 26.5475 37.2C26.6115 37.7547 26.7075 38.1813 26.8355 38.48C25.6835 38.1813 24.7982 37.7867 24.1795 37.296C23.5822 36.784 23.1662 36.1653 22.9315 35.44C22.7182 34.6933 22.6115 33.7973 22.6115 32.752C22.6115 31.8133 22.6968 30.768 22.8675 29.616C23.0382 28.464 23.2088 27.2907 23.3795 26.096C23.5502 24.9013 23.6355 23.76 23.6355 22.672C23.6355 22.1173 23.6248 21.5733 23.6035 21.04C23.6035 20.4853 23.5502 19.9413 23.4435 19.408C23.6142 19.3867 23.8275 19.376 24.0835 19.376C24.3395 19.3547 24.5635 19.344 24.7555 19.344C26.0142 19.344 26.8782 19.5573 27.3475 19.984C27.8168 20.4107 28.0515 21.1147 28.0515 22.096C28.0515 22.7147 27.9235 23.6747 27.6675 24.976C27.4115 26.2773 27.1448 27.8027 26.8675 29.552C26.6115 31.3013 26.4728 33.1787 26.4515 35.184ZM27.8915 17.168C27.5502 17.2533 27.1768 17.328 26.7715 17.392C26.3875 17.456 26.0035 17.488 25.6195 17.488C25.2355 17.488 24.8622 17.4347 24.4995 17.328C24.1368 17.2213 23.8382 17.0293 23.6035 16.752C23.3688 16.4533 23.2515 16.0373 23.2515 15.504C23.2515 15.0347 23.3155 14.5867 23.4435 14.16C23.5715 13.712 23.6995 13.2533 23.8275 12.784C24.1688 12.6773 24.5315 12.6027 24.9155 12.56C25.3208 12.496 25.7155 12.464 26.0995 12.464C26.5048 12.464 26.8782 12.5173 27.2195 12.624C27.5822 12.7307 27.8808 12.9333 28.1155 13.232C28.3502 13.5093 28.4675 13.9147 28.4675 14.448C28.4675 14.9173 28.4035 15.376 28.2755 15.824C28.1475 16.2507 28.0195 16.6987 27.8915 17.168ZM38.1088 26.256C38.6634 24.592 39.2608 23.2693 39.9008 22.288C40.5408 21.2853 41.1808 20.5707 41.8208 20.144C42.4608 19.7173 43.0368 19.504 43.5488 19.504C44.1674 19.504 44.6688 19.6747 45.0528 20.016C45.4581 20.3573 45.7568 20.8053 45.9488 21.36C46.1621 21.8933 46.2688 22.4693 46.2688 23.088C46.2688 23.792 46.1408 24.496 45.8848 25.2C45.6501 25.8827 45.2768 26.4587 44.7648 26.928C44.2528 27.376 43.5701 27.6 42.7168 27.6C42.5034 27.6 42.3008 27.5893 42.1088 27.568C41.9168 27.5253 41.7354 27.4613 41.5648 27.376C41.7568 27.0773 41.9594 26.672 42.1728 26.16C42.3861 25.648 42.5034 25.1253 42.5248 24.592C42.5674 24.2293 42.5248 23.9307 42.3968 23.696C42.2901 23.4613 42.0661 23.344 41.7248 23.344C41.3408 23.344 40.9034 23.6213 40.4128 24.176C39.9434 24.7307 39.4848 25.5307 39.0368 26.576C38.6101 27.6 38.2581 28.848 37.9808 30.32C37.7034 31.792 37.5648 33.4453 37.5648 35.28C37.5648 35.7067 37.5861 36.144 37.6288 36.592C37.6714 37.04 37.7034 37.5093 37.7248 38C37.4688 38.0213 37.2341 38.032 37.0208 38.032C36.8074 38.0533 36.6048 38.064 36.4128 38.064C35.1968 38.064 34.3221 37.8507 33.7888 37.424C33.2554 36.9973 32.9888 36.2933 32.9888 35.312C32.9888 34.8427 33.0528 34.1813 33.1808 33.328C33.3301 32.4533 33.4901 31.472 33.6608 30.384C33.8314 29.296 33.9808 28.176 34.1088 27.024C34.2581 25.8507 34.3328 24.7307 34.3328 23.664C34.3328 22.832 34.2901 22.0107 34.2048 21.2C34.1194 20.3893 33.9808 19.6107 33.7888 18.864C35.4528 19.3973 36.5621 20.1333 37.1168 21.072C37.6928 22.0107 37.9808 23.0987 37.9808 24.336C37.9808 24.5493 37.9701 24.8267 37.9488 25.168C37.9274 25.5093 37.8954 25.8613 37.8528 26.224L38.1088 26.256ZM53.1132 26.288C53.5826 24.6453 54.1586 23.3333 54.8412 22.352C55.5452 21.3493 56.2919 20.624 57.0812 20.176C57.8919 19.7067 58.6812 19.472 59.4492 19.472C60.7292 19.472 61.6999 19.8667 62.3612 20.656C63.0439 21.4453 63.3852 22.48 63.3852 23.76C63.3852 24.6133 63.2039 25.4133 62.8412 26.16C62.4999 26.8853 61.9986 27.5253 61.3372 28.08C60.6972 28.6347 59.9292 29.0827 59.0332 29.424L59.4172 30.608C59.8012 31.8453 60.2812 33.0507 60.8572 34.224C61.4546 35.3973 62.0626 36.4853 62.6812 37.488C63.2999 38.4693 63.8866 39.312 64.4412 40.016C64.9959 40.7413 65.4332 41.2533 65.7532 41.552C65.3692 41.6373 65.0066 41.7013 64.6652 41.744C64.3239 41.808 64.0039 41.84 63.7052 41.84C62.6172 41.84 61.6466 41.4987 60.7932 40.816C59.9612 40.1547 59.2146 39.2587 58.5532 38.128C57.9132 36.9973 57.3266 35.7493 56.7932 34.384C56.2599 32.9973 55.7372 31.6 55.2252 30.192C55.0119 30.2133 54.8092 30.224 54.6172 30.224C54.4252 30.224 54.2226 30.224 54.0092 30.224C53.8812 30.1173 53.8172 29.776 53.8172 29.2C54.8626 29.1787 55.7372 29.008 56.4412 28.688C57.1666 28.368 57.7426 27.952 58.1692 27.44C58.6172 26.928 58.9372 26.384 59.1292 25.808C59.3426 25.2107 59.4492 24.656 59.4492 24.144C59.4492 23.5893 59.3319 23.12 59.0972 22.736C58.8839 22.352 58.5319 22.16 58.0412 22.16C57.4439 22.16 56.8359 22.4907 56.2172 23.152C55.5986 23.8133 55.0226 24.7413 54.4892 25.936C53.9559 27.1093 53.5186 28.4747 53.1772 30.032C52.8572 31.568 52.6972 33.2213 52.6972 34.992C52.6972 35.4827 52.7079 35.9733 52.7292 36.464C52.7506 36.9333 52.8039 37.4453 52.8892 38C52.6332 38.0213 52.3879 38.032 52.1532 38.032C51.9399 38.0533 51.7372 38.064 51.5452 38.064C50.3292 38.064 49.4546 37.8613 48.9212 37.456C48.3879 37.0293 48.1212 36.3253 48.1212 35.344C48.1212 34.64 48.1959 33.6907 48.3452 32.496C48.4946 31.3013 48.6759 29.9253 48.8892 28.368C49.1239 26.8107 49.3586 25.136 49.5932 23.344C49.8279 21.552 50.0199 19.7067 50.1692 17.808C50.3186 15.888 50.3932 13.9893 50.3932 12.112C50.3932 11.2373 50.3612 10.48 50.2972 9.84C50.2332 9.17866 50.1372 8.688 50.0092 8.368C51.1186 8.66666 51.9719 9.06133 52.5692 9.552C53.1666 10.0427 53.5826 10.6507 53.8172 11.376C54.0519 12.1013 54.1692 12.9653 54.1692 13.968C54.1692 14.8 54.0946 15.8453 53.9452 17.104C53.8172 18.3627 53.6572 19.7707 53.4652 21.328C53.2732 22.8853 53.0812 24.528 52.8892 26.256L53.1132 26.288ZM81.9202 38.672C80.7896 38.3093 79.9149 37.8507 79.2962 37.296C78.6776 36.72 78.2509 36.08 78.0162 35.376C77.7816 34.6507 77.6642 33.8613 77.6642 33.008C77.6642 32.6453 77.6749 32.2827 77.6962 31.92C77.7389 31.5573 77.7922 31.1733 77.8562 30.768L77.6002 30.704C77.1096 32.1333 76.4909 33.4027 75.7442 34.512C74.9976 35.6 74.2189 36.4533 73.4082 37.072C72.6189 37.6907 71.8722 38 71.1682 38C70.2082 38 69.4616 37.7653 68.9282 37.296C68.3949 36.8053 68.0216 36.1653 67.8082 35.376C67.5949 34.5653 67.4882 33.6693 67.4882 32.688C67.4882 31.5573 67.5736 30.4587 67.7442 29.392C67.9362 28.304 68.1176 27.248 68.2882 26.224C68.4589 25.2 68.5442 24.1973 68.5442 23.216C68.5442 22.6187 68.5122 22.032 68.4482 21.456C68.3842 20.88 68.2669 20.2933 68.0962 19.696C69.1842 19.696 70.1016 19.7813 70.8482 19.952C71.5949 20.1227 72.1602 20.4533 72.5442 20.944C72.9496 21.4133 73.1522 22.1387 73.1522 23.12C73.1522 23.888 73.0349 24.7947 72.8002 25.84C72.5869 26.8853 72.3629 27.9733 72.1282 29.104C71.9149 30.2133 71.8082 31.28 71.8082 32.304C71.8082 33.0933 71.9042 33.6907 72.0962 34.096C72.3096 34.48 72.6402 34.672 73.0882 34.672C73.5362 34.672 73.9949 34.416 74.4642 33.904C74.9549 33.392 75.4242 32.6987 75.8722 31.824C76.3416 30.928 76.7469 29.9253 77.0882 28.816C77.4509 27.7067 77.7176 26.5547 77.8882 25.36C78.0802 24.144 78.1549 22.9707 78.1122 21.84C78.0909 21.4347 78.0589 21.04 78.0162 20.656C77.9736 20.272 77.8989 19.8987 77.7922 19.536C78.0269 19.5147 78.2616 19.504 78.4962 19.504C78.7309 19.4827 78.9442 19.472 79.1362 19.472C79.8189 19.472 80.4056 19.5467 80.8962 19.696C81.4082 19.8453 81.8029 20.1333 82.0802 20.56C82.3789 20.9653 82.5282 21.552 82.5282 22.32C82.5282 22.7253 82.4642 23.3227 82.3362 24.112C82.2296 24.9013 82.0909 25.808 81.9202 26.832C81.7496 27.8347 81.6002 28.88 81.4722 29.968C81.3656 31.0347 81.3122 32.0693 81.3122 33.072C81.3122 34.0533 81.3549 35.0133 81.4402 35.952C81.5256 36.8907 81.6856 37.7973 81.9202 38.672ZM87.4065 34.256C87.4065 33.552 87.4812 32.5493 87.6305 31.248C87.7798 29.9467 87.9612 28.4747 88.1745 26.832C88.3878 25.1893 88.5905 23.4827 88.7825 21.712C88.9958 19.9413 89.1772 18.224 89.3265 16.56C89.4758 14.896 89.5505 13.4133 89.5505 12.112C89.5505 11.2373 89.5185 10.48 89.4545 9.84C89.3905 9.17866 89.2945 8.688 89.1665 8.368C90.2758 8.66666 91.1292 9.06133 91.7265 9.552C92.3238 10.0427 92.7398 10.6507 92.9745 11.376C93.2092 12.1013 93.3265 12.9653 93.3265 13.968C93.3265 14.9493 93.2305 16.2293 93.0385 17.808C92.8465 19.3867 92.6332 21.1573 92.3985 23.12C92.1638 25.0827 91.9505 27.1307 91.7585 29.264C91.5665 31.3973 91.4705 33.5093 91.4705 35.6C91.4705 36.0907 91.4812 36.5813 91.5025 37.072C91.5452 37.5413 91.5772 38.0107 91.5985 38.48C90.5958 38.4373 89.8065 38.3093 89.2305 38.096C88.6545 37.8827 88.2385 37.5947 87.9825 37.232C87.7265 36.8693 87.5665 36.4427 87.5025 35.952C87.4385 35.44 87.4065 34.8747 87.4065 34.256Z" fill="#FFFDF5"/>
<path d="M117.646 30.6669L116.663 28.5319L114.551 29.9494L115.532 32.08C115.59 32.2044 115.632 32.3328 115.658 32.465C115.704 32.7059 115.698 32.9568 115.641 33.1942C115.612 33.3144 115.569 33.4296 115.515 33.5369C115.413 33.7476 115.269 33.9241 115.096 34.0502C114.908 34.183 114.694 34.252 114.476 34.25H108.917V31.3333L104.083 35.7083L108.917 40.0833V37.1667H114.476C114.812 37.1667 115.143 37.1127 115.456 37.0077C116.061 36.8063 116.61 36.4159 117.05 35.876C117.265 35.615 117.451 35.3219 117.601 35.0112C118.077 34.0382 118.222 32.8807 118.007 31.781C117.927 31.3925 117.805 31.018 117.646 30.6669ZM99.0832 24.0985L96.292 30.836C96.1467 31.1844 96.0406 31.5547 95.9766 31.9371C95.8589 32.6527 95.8913 33.3924 96.0709 34.089C96.2505 34.7856 96.5716 35.417 97.0049 35.9256C97.22 36.1803 97.4596 36.4006 97.7239 36.5862C98.275 36.968 98.8997 37.1681 99.5352 37.1667H101.667V34.25H99.5352C99.3235 34.2518 99.1151 34.1864 98.931 34.0604C98.7556 33.9367 98.6089 33.7617 98.5045 33.5515C98.3984 33.3456 98.3365 33.111 98.3244 32.869C98.3195 32.7492 98.3268 32.6292 98.3462 32.5117C98.3679 32.3843 98.4038 32.2599 98.4537 32.1383L101.18 25.5583L103.112 26.9044L102.389 19.6667L96.8333 22.5308L99.0832 24.0985ZM114.473 26.9058L115.195 19.6667L113.216 21.0448L109.781 13.5825C109.541 13.0517 109.211 12.5879 108.813 12.2213C108.414 11.8547 107.957 11.5935 107.469 11.4548C107.163 11.3689 106.85 11.3282 106.536 11.3337C105.897 11.348 105.273 11.5658 104.726 11.9652C104.143 12.3929 103.672 13.0127 103.37 13.7517L102.486 15.8867L104.648 17.1919L105.532 15.0554C105.587 14.9242 105.654 14.8065 105.733 14.7025C105.877 14.5126 106.062 14.3761 106.268 14.3087C106.477 14.2374 106.697 14.2319 106.908 14.2927C107.07 14.3381 107.221 14.4248 107.353 14.5468C107.484 14.6688 107.592 14.8233 107.67 15L111.123 22.5046L108.917 24.0417L114.473 26.9058Z" fill="#FFFDF5"/>
</svg>
