<svg width="78" height="70" viewBox="0 0 78 70" fill="none" xmlns="http://www.w3.org/2000/svg">
<path d="M58.5 43.75H52V49.5833H58.5M58.5 32.0833H52V37.9167H58.5M65 55.4167H39V49.5833H45.5V43.75H39V37.9167H45.5V32.0833H39V26.25H65M32.5 20.4167H26V14.5833H32.5M32.5 32.0833H26V26.25H32.5M32.5 43.75H26V37.9167H32.5M32.5 55.4167H26V49.5833H32.5M19.5 20.4167H13V14.5833H19.5M19.5 32.0833H13V26.25H19.5M19.5 43.75H13V37.9167H19.5M19.5 55.4167H13V49.5833H19.5M39 20.4167V8.75H6.5V61.25H71.5V20.4167H39Z" fill="#696969"/>
</svg>
