<svg width="77" height="67" viewBox="0 0 77 67" fill="none" xmlns="http://www.w3.org/2000/svg">
<path d="M38.6875 8.1875C37.7395 8.1875 36.8008 8.34997 35.925 8.66563C35.0492 8.98129 34.2534 9.44397 33.5831 10.0272C32.9127 10.6105 32.381 11.3029 32.0182 12.065C31.6555 12.8271 31.4688 13.6439 31.4688 14.4688C31.4688 15.2936 31.6555 16.1104 32.0182 16.8725C32.381 17.6346 32.9127 18.327 33.5831 18.9103C34.2534 19.4935 35.0492 19.9562 35.925 20.2719C36.8008 20.5875 37.7395 20.75 38.6875 20.75C40.602 20.75 42.4381 20.0882 43.7919 18.9103C45.1457 17.7323 45.9062 16.1346 45.9062 14.4688C45.9062 12.8029 45.1457 11.2052 43.7919 10.0272C42.4381 8.84927 40.602 8.1875 38.6875 8.1875ZM26.6562 14.4688C26.6562 11.6923 27.9238 9.0295 30.1801 7.06623C32.4364 5.10295 35.4966 4 38.6875 4C41.8784 4 44.9386 5.10295 47.1949 7.06623C49.4512 9.0295 50.7188 11.6923 50.7188 14.4688C50.7188 17.2452 49.4512 19.908 47.1949 21.8713C44.9386 23.8345 41.8784 24.9375 38.6875 24.9375C35.4966 24.9375 32.4364 23.8345 30.1801 21.8713C27.9238 19.908 26.6562 17.2452 26.6562 14.4688ZM19.4375 35.4062C19.4407 34.6413 19.5305 33.9015 19.707 33.1869L10.3515 35.3644C9.43565 35.5781 8.57717 35.9468 7.82511 36.4493C7.07304 36.9519 6.44213 37.5784 5.96841 38.2931C5.49468 39.0079 5.18744 39.7968 5.06421 40.6149C4.94099 41.433 5.00421 42.2642 5.25025 43.061L7.1175 49.1287C7.61952 50.7568 8.49298 52.2803 9.68585 53.6086C10.8787 54.9368 12.3666 56.0425 14.0609 56.8599C15.7551 57.6774 17.6211 58.1897 19.5477 58.3665C21.4743 58.5433 23.4221 58.3809 25.2751 57.8889C23.988 56.8026 22.8816 55.5651 21.9881 54.2123C19.7211 54.4027 17.4498 53.8875 15.5782 52.7581C13.7067 51.6287 12.356 49.9584 11.7664 48.0441L9.89431 41.9722C9.72976 41.4358 9.81679 40.8645 10.1363 40.3839C10.4557 39.9033 10.9815 39.5528 11.5979 39.4095L19.4375 37.5838V35.4062ZM52.5764 58.0104L52.0951 57.8931C53.3801 56.8044 54.4918 55.5691 55.3869 54.2123C57.6539 54.4027 59.9252 53.8875 61.7968 52.7581C63.6684 51.6287 65.019 49.9584 65.6086 48.0441L67.4759 41.9722C67.6406 41.4364 67.5542 40.8656 67.2357 40.3851C66.9172 39.9046 66.3926 39.5537 65.7771 39.4095L57.9375 37.5838V35.4062C57.9343 34.6413 57.8445 33.9015 57.668 33.1869L67.0187 35.3644C67.935 35.5777 68.794 35.946 69.5466 36.4484C70.2991 36.9507 70.9306 37.5772 71.4048 38.292C71.879 39.0067 72.1867 39.7958 72.3102 40.6141C72.4337 41.4324 72.3707 42.2639 72.1247 43.061L70.2575 49.1287C69.2651 52.3457 66.845 55.0881 63.5293 56.7528C60.2137 58.4176 56.2739 58.8726 52.5764 58.0104ZM9.8125 20.75C9.8125 19.6394 10.3195 18.5743 11.222 17.789C12.1246 17.0037 13.3486 16.5625 14.625 16.5625C15.9014 16.5625 17.1254 17.0037 18.028 17.789C18.9305 18.5743 19.4375 19.6394 19.4375 20.75C19.4375 21.8606 18.9305 22.9257 18.028 23.711C17.1254 24.4963 15.9014 24.9375 14.625 24.9375C13.3486 24.9375 12.1246 24.4963 11.222 23.711C10.3195 22.9257 9.8125 21.8606 9.8125 20.75ZM14.625 12.375C12.0723 12.375 9.62414 13.2574 7.8191 14.828C6.01406 16.3986 5 18.5288 5 20.75C5 22.9712 6.01406 25.1014 7.8191 26.672C9.62414 28.2426 12.0723 29.125 14.625 29.125C17.1777 29.125 19.6259 28.2426 21.4309 26.672C23.2359 25.1014 24.25 22.9712 24.25 20.75C24.25 18.5288 23.2359 16.3986 21.4309 14.828C19.6259 13.2574 17.1777 12.375 14.625 12.375ZM62.75 16.5625C61.4736 16.5625 60.2496 17.0037 59.347 17.789C58.4445 18.5743 57.9375 19.6394 57.9375 20.75C57.9375 21.8606 58.4445 22.9257 59.347 23.711C60.2496 24.4963 61.4736 24.9375 62.75 24.9375C64.0264 24.9375 65.2504 24.4963 66.153 23.711C67.0555 22.9257 67.5625 21.8606 67.5625 20.75C67.5625 19.6394 67.0555 18.5743 66.153 17.789C65.2504 17.0037 64.0264 16.5625 62.75 16.5625ZM53.125 20.75C53.125 18.5288 54.1391 16.3986 55.9441 14.828C57.7491 13.2574 60.1973 12.375 62.75 12.375C65.3027 12.375 67.7509 13.2574 69.5559 14.828C71.3609 16.3986 72.375 18.5288 72.375 20.75C72.375 22.9712 71.3609 25.1014 69.5559 26.672C67.7509 28.2426 65.3027 29.125 62.75 29.125C60.1973 29.125 57.7491 28.2426 55.9441 26.672C54.1391 25.1014 53.125 22.9712 53.125 20.75ZM31.4688 29.125C29.5542 29.125 27.7181 29.7868 26.3643 30.9647C25.0105 32.1427 24.25 33.7404 24.25 35.4062V45.875C24.25 49.2068 25.7711 52.4021 28.4786 54.758C31.1862 57.114 34.8584 58.4375 38.6875 58.4375C42.5166 58.4375 46.1888 57.114 48.8964 54.758C51.6039 52.4021 53.125 49.2068 53.125 45.875V35.4062C53.125 33.7404 52.3645 32.1427 51.0107 30.9647C49.6569 29.7868 47.8208 29.125 45.9062 29.125H31.4688ZM29.0625 35.4062C29.0625 34.851 29.316 34.3184 29.7673 33.9257C30.2185 33.5331 30.8306 33.3125 31.4688 33.3125H45.9062C46.5444 33.3125 47.1565 33.5331 47.6077 33.9257C48.059 34.3184 48.3125 34.851 48.3125 35.4062V45.875C48.3125 48.0962 47.2984 50.2264 45.4934 51.797C43.6884 53.3676 41.2402 54.25 38.6875 54.25C36.1348 54.25 33.6866 53.3676 31.8816 51.797C30.0766 50.2264 29.0625 48.0962 29.0625 45.875V35.4062Z" fill="#696969"/>
</svg>
