<svg width="65" height="51" viewBox="0 0 65 51" fill="none" xmlns="http://www.w3.org/2000/svg">
<path d="M60.9583 50.25H3.20833C2.35743 50.25 1.54138 49.9559 0.939699 49.4323C0.33802 48.9088 1.92084e-08 48.1987 1.92084e-08 47.4583V26.4845C-5.01424e-05 26.0856 0.0981458 25.6914 0.287973 25.3283C0.477799 24.9652 0.754848 24.6417 1.10046 24.3796L12.8333 15.477V2.79167C12.8333 2.05127 13.1714 1.3412 13.773 0.81766C14.3747 0.294121 15.1908 0 16.0417 0H60.9583C61.8092 0 62.6253 0.294121 63.227 0.81766C63.8286 1.3412 64.1667 2.05127 64.1667 2.79167V47.4583C64.1667 48.1987 63.8286 48.9088 63.227 49.4323C62.6253 49.9559 61.8092 50.25 60.9583 50.25ZM22.4583 44.6667H32.0833V27.7548L19.25 18.0174L6.41667 27.7548V44.6667H16.0417V33.5H22.4583V44.6667ZM38.5 44.6667H57.75V5.58333H19.25V11.5212C20.0007 11.5212 20.7547 11.7501 21.3579 12.2108L37.3995 24.3796C37.7451 24.6417 38.0222 24.9652 38.212 25.3283C38.4019 25.6914 38.5 26.0856 38.5 26.4845V44.6667ZM44.9167 22.3333H51.3333V27.9167H44.9167V22.3333ZM44.9167 33.5H51.3333V39.0833H44.9167V33.5ZM44.9167 11.1667H51.3333V16.75H44.9167V11.1667ZM32.0833 11.1667H38.5V16.75H32.0833V11.1667Z" fill="#696969"/>
</svg>
